<?xml version="1.0"?>
<svg xmlns="http://www.w3.org/2000/svg" xmlns:xlink="http://www.w3.org/1999/xlink" xmlns:svgjs="http://svgjs.com/svgjs" version="1.1" width="512" height="512" x="0" y="0" viewBox="0 0 24 24" style="enable-background:new 0 0 512 512" xml:space="preserve" class=""><g><path xmlns="http://www.w3.org/2000/svg" d="m21.25 0h-18.5c-1.517 0-2.75 1.233-2.75 2.75v18.5c0 1.517 1.233 2.75 2.75 2.75h18.5c1.517 0 2.75-1.233 2.75-2.75v-18.5c0-1.517-1.233-2.75-2.75-2.75z" fill="#00000000" data-original="#eceff1" style="" class=""/><path xmlns="http://www.w3.org/2000/svg" d="m12 18c-.414 0-.75-.336-.75-.75v-13.5c0-.414.336-.75.75-.75s.75.336.75.75v13.5c0 .414-.336.75-.75.75z" fill="#261b1b" data-original="#000000" style="" class=""/><path xmlns="http://www.w3.org/2000/svg" d="m15.25 7.75c-.192 0-.384-.073-.53-.22l-2.72-2.719-2.72 2.719c-.293.293-.768.293-1.061 0s-.293-.768 0-1.061l3.25-3.25c.293-.293.768-.293 1.061 0l3.25 3.25c.293.293.293.768 0 1.061-.146.147-.338.22-.53.22z" fill="#261b1b" data-original="#000000" style="" class=""/><path xmlns="http://www.w3.org/2000/svg" d="m17.25 21h-10.5c-.965 0-1.75-.785-1.75-1.75v-8.5c0-.965.785-1.75 1.75-1.75h2.5c.414 0 .75.336.75.75s-.336.75-.75.75h-2.5c-.138 0-.25.112-.25.25v8.5c0 .138.112.25.25.25h10.5c.138 0 .25-.112.25-.25v-8.5c0-.138-.112-.25-.25-.25h-2.5c-.414 0-.75-.336-.75-.75s.335-.75.75-.75h2.5c.965 0 1.75.785 1.75 1.75v8.5c0 .965-.785 1.75-1.75 1.75z" fill="#261b1b" data-original="#000000" style="" class=""/><path xmlns="http://www.w3.org/2000/svg" d="m21.25 24h-18.5c-1.517 0-2.75-1.233-2.75-2.75v-18.5c0-1.517 1.233-2.75 2.75-2.75h18.5c1.517 0 2.75 1.233 2.75 2.75v18.5c0 1.517-1.233 2.75-2.75 2.75zm-18.5-22.5c-.689 0-1.25.561-1.25 1.25v18.5c0 .689.561 1.25 1.25 1.25h18.5c.689 0 1.25-.561 1.25-1.25v-18.5c0-.689-.561-1.25-1.25-1.25z" fill="#261b1b" data-original="#000000" style="" class=""/></g></svg>
